<?xml version="1.0" standalone="no"?>
<!DOCTYPE svg PUBLIC "-//W3C//DTD SVG 20010904//EN"
 "http://www.w3.org/TR/2001/REC-SVG-20010904/DTD/svg10.dtd">
<svg version="1.0" xmlns="http://www.w3.org/2000/svg"
 width="9.600000pt" height="8.640000pt" viewBox="0 0 9.600000 8.640000"
 preserveAspectRatio="xMidYMid meet">
<metadata>
Created by potrace 1.16, written by Peter Selinger 2001-2019
</metadata>
<g transform="translate(0.000000,8.640000) scale(0.001143,-0.001155)"
fill="#000000" stroke="none">
<path d="M1315 7050 c-182 -37 -340 -180 -395 -359 -20 -62 -20 -102 -20
-1817 l0 -1754 115 0 115 0 2 1743 3 1742 28 57 c32 65 70 101 143 135 l51 23
2804 -2 c2778 -3 2804 -3 2854 -23 27 -11 73 -42 101 -70 90 -87 84 11 84
-1357 l0 -1198 120 0 120 0 0 1198 c0 1312 1 1274 -60 1398 -60 122 -158 204
-310 258 l-85 31 -2815 1 c-1548 1 -2833 -2 -2855 -6z"/>
<path d="M5300 2275 l0 -1675 1220 0 1220 0 0 1675 0 1675 -1220 0 -1220 0 0
-1675z m2210 95 l0 -1320 -995 0 -995 0 0 1320 0 1320 995 0 995 0 0 -1320z
m-1317 -1490 c30 -34 34 -67 12 -109 -43 -85 -175 -50 -175 46 0 44 14 69 48
88 37 21 81 11 115 -25z m362 25 c102 -49 46 -204 -64 -180 -40 9 -71 49 -71
92 0 46 15 72 53 88 41 18 43 18 82 0z m408 -25 c39 -43 36 -83 -8 -127 -31
-31 -40 -35 -72 -30 -95 16 -120 128 -39 178 41 26 83 18 119 -21z"/>
<path d="M650 1740 l0 -1150 733 2 732 3 0 1145 0 1145 -732 3 -733 2 0 -1150z
m970 975 l0 -25 -240 0 -240 0 0 25 0 25 240 0 240 0 0 -25z m340 -975 l0
-830 -580 0 -580 0 0 830 0 830 580 0 580 0 0 -830z m-536 -900 c29 -11 56
-57 56 -95 0 -42 -50 -85 -98 -85 -58 0 -92 35 -92 94 0 37 5 48 31 70 32 27
62 32 103 16z"/>
<path d="M2573 2503 l-263 -3 0 -240 0 -240 1375 0 1375 0 0 245 0 245 -1112
-2 c-612 -2 -1231 -4 -1375 -5z m1642 -137 c67 -28 87 -122 38 -176 -56 -62
-153 -47 -189 29 -15 31 -15 40 -3 75 15 42 66 86 101 86 10 0 34 -6 53 -14z"/>
<path d="M3560 1809 c-44 -18 -90 -59 -113 -102 -21 -40 -22 -55 -25 -304 l-3
-263 -202 0 c-117 0 -219 -5 -242 -11 -63 -18 -118 -62 -150 -121 -26 -47 -30
-63 -30 -138 0 -47 6 -102 14 -123 19 -55 68 -106 126 -133 l50 -24 1036 0
1036 0 -1 273 -1 272 -72 3 -73 3 0 223 c0 123 -4 246 -10 274 -13 73 -52 126
-113 157 l-51 25 -575 -1 c-354 0 -586 -4 -601 -10z"/>
</g>
</svg>
